<?xml version="1.0" standalone="no"?>
<!DOCTYPE svg PUBLIC "-//W3C//DTD SVG 20010904//EN"
 "http://www.w3.org/TR/2001/REC-SVG-20010904/DTD/svg10.dtd">
<svg version="1.0" xmlns="http://www.w3.org/2000/svg"
 width="16.000000pt" height="16.000000pt" viewBox="0 0 16.000000 16.000000"
 preserveAspectRatio="xMidYMid meet">
<metadata>
Created by potrace 1.11, written by Peter Selinger 2001-2013
</metadata>
<g transform="translate(0.000000,16.000000) scale(0.001615,-0.001615)"
fill="#000000" stroke="none">
<path d="M4770 7270 c-593 -83 -1074 -478 -1259 -1035 -149 -448 -78 -939 192
-1340 81 -120 274 -311 396 -393 247 -166 501 -249 796 -259 183 -6 284 4 450
47 270 70 507 210 708 419 350 365 495 879 387 1375 -29 132 -55 206 -120 341
-205 426 -597 728 -1073 826 -116 24 -370 34 -477 19z m475 -99 c451 -99 809
-378 1006 -786 54 -111 109 -271 109 -316 0 -34 -19 -20 -30 24 -127 481 -469
852 -925 1005 -168 56 -242 67 -450 67 -208 0 -282 -11 -450 -67 -443 -148
-798 -525 -914 -970 -17 -68 -41 -103 -41 -60 0 42 53 201 100 299 213 447
601 737 1095 818 123 20 378 13 500 -14z m-555 -1162 l0 -331 -116 -206 c-64
-114 -120 -211 -124 -216 -5 -4 -8 54 -7 130 l0 139 -209 5 c-202 5 -211 6
-268 33 -183 85 -273 281 -220 482 27 105 89 188 181 242 82 48 115 52 451 52
l312 1 0 -331z m520 78 l104 -217 113 217 c62 120 115 223 117 228 7 14 3 21
333 -585 l303 -555 -137 -3 c-75 -1 -142 -1 -149 2 -6 2 -84 125 -174 273 -90
147 -166 272 -170 276 -4 4 -55 -79 -114 -185 -60 -106 -111 -197 -116 -201
-4 -4 -58 82 -121 192 -68 120 -118 196 -123 191 -5 -5 -80 -130 -167 -277
l-157 -268 -152 -3 c-127 -2 -151 0 -147 11 3 8 119 216 257 463 139 247 275
490 302 539 71 127 79 138 87 129 4 -5 54 -107 111 -227z m-1636 -639 c93
-319 191 -493 386 -688 195 -196 429 -324 705 -386 95 -21 380 -30 487 -15
352 50 679 235 899 509 138 172 206 309 285 580 2 6 10 12 18 12 12 0 12 -11
-5 -72 -146 -529 -562 -922 -1104 -1043 -40 -9 -144 -18 -240 -22 -144 -4
-188 -2 -290 15 -541 93 -972 472 -1139 1002 -14 45 -26 90 -26 101 0 21 18
26 24 7z"/>
<path d="M4110 6131 c-103 -21 -162 -94 -162 -201 0 -73 29 -131 84 -167 41
-28 44 -28 228 -31 l186 -3 -2 33 c-1 18 -2 111 -3 206 l-1 172 -147 -1 c-82
-1 -164 -4 -183 -8z"/>
<path d="M3270 3599 l0 -419 65 0 65 0 0 249 0 249 123 -120 c67 -66 134 -128
149 -139 l27 -19 133 144 133 144 3 -254 2 -254 65 0 65 0 0 422 0 421 -20
-18 c-11 -10 -102 -108 -203 -217 l-182 -199 -212 215 -213 214 0 -419z"/>
<path d="M4383 3617 c-95 -221 -175 -410 -179 -419 -5 -16 1 -18 58 -18 l65 0
24 63 25 62 179 3 180 2 26 -62 25 -63 62 -3 c37 -2 62 1 62 7 0 9 -332 788
-348 817 -5 8 -78 -151 -179 -389z m187 122 c0 -8 95 -259 117 -306 4 -10 -26
-13 -130 -13 l-134 0 66 169 c57 146 81 191 81 150z"/>
<path d="M5305 4006 c-184 -58 -305 -223 -305 -416 0 -268 246 -474 502 -421
189 40 304 172 333 384 l6 47 -175 0 -176 0 0 -55 0 -55 101 0 c99 0 100 0 94
-22 -30 -100 -140 -178 -254 -180 -139 -2 -247 81 -287 221 -31 106 2 227 85
304 66 62 121 81 218 75 77 -5 112 -18 204 -75 26 -16 27 -16 74 22 l47 39
-43 37 c-52 44 -129 84 -190 98 -60 14 -185 12 -234 -3z"/>
<path d="M6097 3607 c-98 -227 -177 -416 -177 -420 0 -4 29 -7 64 -7 l64 0 23
65 23 65 181 0 181 0 24 -65 24 -65 64 0 c57 0 64 2 59 18 -5 17 -347 815
-351 820 -2 1 -82 -184 -179 -411z m246 -20 l65 -167 -134 0 -134 0 13 33 c8
17 38 94 67 170 29 75 54 136 56 135 1 -2 32 -78 67 -171z"/>
<path d="M6923 4010 c-95 -19 -182 -94 -204 -174 -23 -86 15 -188 91 -244 43
-31 115 -57 190 -67 60 -7 106 -37 127 -79 14 -31 15 -39 2 -72 -18 -48 -66
-74 -137 -74 -66 0 -112 19 -143 58 l-24 31 -67 -17 c-38 -9 -68 -21 -68 -27
0 -22 60 -95 99 -120 115 -76 297 -73 402 8 158 120 95 340 -115 402 -27 8
-63 15 -80 15 -43 1 -108 32 -134 65 -32 40 -29 94 6 127 41 38 65 48 122 48
52 0 112 -19 141 -46 14 -13 20 -12 55 2 21 9 50 21 63 26 l24 9 -34 35 c-44
46 -110 79 -184 93 -65 12 -73 12 -132 1z"/>
<path d="M7642 3598 l3 -413 63 -3 62 -3 0 266 0 267 271 -264 c149 -144 275
-264 280 -266 5 -2 9 163 9 407 l0 411 -70 0 -70 0 0 -262 0 -263 -268 268
c-147 147 -271 267 -275 267 -4 0 -6 -186 -5 -412z"/>
<path d="M1580 3590 l0 -410 250 0 250 0 0 60 0 60 -190 0 -190 0 0 350 0 350
-60 0 -60 0 0 -410z"/>
<path d="M2220 3590 l0 -410 250 0 250 0 0 55 0 55 -187 2 -188 3 0 65 0 65
160 5 160 5 3 52 3 52 -163 3 -163 3 -3 173 -2 172 190 0 190 0 0 55 0 55
-250 0 -250 0 0 -410z"/>
<path d="M7380 3590 l0 -410 65 0 65 0 0 410 0 410 -65 0 -65 0 0 -410z"/>
<path d="M2728 2961 c-25 -22 -32 -37 -32 -64 0 -50 33 -83 103 -102 99 -27
121 -41 121 -74 0 -38 -31 -61 -82 -61 -55 0 -88 16 -101 50 -8 21 -18 30 -34
30 -27 0 -28 -10 -7 -56 18 -38 49 -58 106 -68 125 -23 219 98 137 175 -17 16
-36 29 -41 29 -6 0 -42 9 -79 20 -58 18 -70 25 -75 47 -10 37 24 63 82 63 46
0 84 -25 84 -55 0 -9 10 -15 26 -15 23 0 25 3 20 28 -4 15 -20 39 -37 55 -26
24 -37 27 -94 27 -57 0 -68 -3 -97 -29z"/>
<path d="M3038 2828 c-4 -197 -2 -208 22 -208 18 0 20 10 22 152 l3 152 51
-150 c46 -133 54 -149 74 -149 20 0 29 16 76 150 l53 150 0 -152 1 -153 24 0
25 0 0 170 c0 94 -2 177 -6 185 -3 8 -18 15 -33 15 -30 0 -36 -12 -109 -230
l-28 -85 -52 158 -53 157 -33 0 -34 0 -3 -162z"/>
<path d="M3512 2858 c-28 -73 -60 -157 -71 -186 l-21 -53 27 3 c24 3 31 11 47
56 l19 52 77 0 77 0 20 -52 c17 -45 25 -54 48 -56 23 -3 27 -1 21 15 -3 10
-37 93 -74 185 -63 157 -69 168 -93 168 -25 0 -30 -9 -77 -132z m108 2 c12
-36 25 -71 27 -77 4 -10 -11 -13 -57 -13 -46 0 -61 3 -57 13 2 6 15 44 28 84
13 39 27 68 30 65 3 -4 16 -36 29 -72z"/>
<path d="M3800 2805 l0 -185 25 0 c25 0 25 1 25 80 l0 80 50 0 c58 0 67 -7
125 -98 33 -51 45 -62 68 -62 15 0 27 2 27 5 0 12 -75 121 -98 142 -19 18 -21
23 -9 23 26 0 77 52 82 85 7 37 -24 91 -61 105 -14 6 -72 10 -130 10 l-104 0
0 -185z m226 120 c18 -19 23 -31 19 -48 -12 -38 -34 -47 -117 -47 l-78 0 0 60
0 60 75 0 c68 0 79 -3 101 -25z"/>
<path d="M4134 2975 c-10 -26 6 -36 56 -32 26 3 53 1 60 -3 8 -5 11 -50 8
-164 -3 -156 -3 -156 19 -156 22 0 23 2 25 163 l3 162 58 -1 c54 -1 57 0 57
22 l0 24 -140 0 c-114 0 -142 -3 -146 -15z"/>
<path d="M4638 2961 c-25 -22 -32 -36 -32 -65 0 -53 34 -82 124 -107 88 -24
100 -32 100 -70 0 -75 -155 -83 -183 -9 -8 21 -18 30 -34 30 -27 0 -28 -10 -7
-56 55 -116 274 -81 274 43 0 53 -39 86 -128 108 -77 18 -102 34 -102 65 0 47
111 69 150 30 11 -11 20 -27 20 -35 0 -9 9 -15 25 -15 37 0 32 35 -9 76 -32
32 -38 34 -100 34 -58 0 -69 -3 -98 -29z"/>
<path d="M4950 2805 l0 -185 25 0 c25 0 25 1 25 85 l0 85 95 0 95 0 0 -85 c0
-84 0 -85 25 -85 l25 0 -2 183 c-3 180 -3 182 -25 185 -22 3 -23 0 -23 -72 l0
-76 -95 0 -95 0 0 75 c0 73 -1 75 -25 75 l-25 0 0 -185z"/>
<path d="M5391 2973 c-101 -50 -121 -228 -35 -310 87 -82 218 -59 272 47 44
88 18 208 -57 257 -42 28 -129 31 -180 6z m153 -44 c37 -29 56 -71 56 -123 0
-93 -44 -146 -121 -146 -88 0 -140 74 -124 176 10 69 57 114 118 114 30 0 53
-7 71 -21z"/>
<path d="M5710 2805 l0 -185 25 0 c24 0 25 2 25 74 l0 74 86 3 c82 4 87 5 115
37 20 22 29 43 29 67 0 88 -43 115 -184 115 l-96 0 0 -185z m197 129 c26 -5
39 -41 29 -79 -7 -28 -54 -45 -128 -45 l-48 0 0 63 c0 35 2 66 5 69 5 5 106 0
142 -8z"/>
<path d="M6050 2805 l0 -185 25 0 c24 0 25 2 25 75 l0 75 71 0 c81 0 131 19
148 56 27 60 3 135 -50 153 -18 6 -74 11 -125 11 l-94 0 0 -185z m218 117 c13
-17 16 -60 4 -79 -12 -20 -60 -33 -118 -33 l-54 0 0 64 0 65 48 3 c66 5 105
-2 120 -20z"/>
<path d="M6400 2805 l0 -185 25 0 25 0 0 185 0 185 -25 0 -25 0 0 -185z"/>
<path d="M6539 2973 c-6 -122 -8 -324 -3 -337 3 -9 15 -16 25 -16 17 0 19 11
21 142 l3 141 94 -141 c77 -116 98 -142 117 -142 l24 0 0 185 c0 177 -1 185
-20 185 -18 0 -20 -8 -22 -142 l-3 -143 -95 142 c-75 112 -100 143 -117 143
-15 0 -23 -6 -24 -17z"/>
<path d="M6980 2971 c-67 -35 -104 -141 -80 -228 35 -122 177 -167 298 -93 31
19 32 21 32 90 l0 70 -75 0 c-73 0 -75 -1 -75 -25 0 -23 3 -25 50 -25 l50 0 0
-36 c0 -31 -4 -37 -35 -50 -85 -35 -169 -3 -194 74 -18 59 -7 125 28 164 23
26 37 32 84 36 55 4 58 3 91 -32 19 -20 42 -36 50 -36 37 0 3 71 -45 96 -40
20 -137 18 -179 -5z"/>
</g>
</svg>
